PathFileType	4	(X/Y/Z)	C:/Users/Carlo/Dropbox/Carlos/SARAH/CongressoMarcha2025/WorkshopOpenSim/C3D/Caso02/Walking03.c3d.trc
DataRate	CameraRate	NumFrames	NumMarkers	Units	OrigDataRate	OrigDataStartFrame	OrigNumFrames
100.000000	100.000000	2	197	mm	100.000000	350	400
Frame#	Time	PELO			PELA			PELL			PELP			LFEO			LFEA			LFEL			LFEP			LTIO			LTIA			LTIL			LTIP			LFOO			LFOA			LFOL			LFOP			RFEO			RFEA			RFEL			RFEP			RTIO			RTIA			RTIL			RTIP			RFOO			RFOA			RFOL			RFOP			LTOO			LTOA			LTOL			LTOP			RTOO			RTOA			RTOL			RTOP			HEDO			HEDA			HEDL			HEDP			LCLO			LCLA			LCLL			LCLP			RCLO			RCLA			RCLL			RCLP			TRXO			TRXA			TRXL			TRXP			LHUO			LHUA			LHUL			LHUP			LRAO			LRAA			LRAL			LRAP			LHNO			LHNA			LHNL			LHNP			RHUO			RHUA			RHUL			RHUP			RRAO			RRAA			RRAL			RRAP			RHNO			RHNA			RHNL			RHNP			LFHD			RFHD			RBHD			LSHO			LUPA			LELB			LFRM			LWRA			LWRB			LFIN			RSHO			RUPA			RELB			RFRM			RWRA			RWRB			RFIN			LTHI			LKNE			LTIB			LANK			LTOE			RKNE			RTIB			RANK			LASI			LHEE			LBHD			RTHI			RHEE			RTOE			STRN			RASI			CLAV			RPSI			C7			LPSI			RBAK			T10			LHipAngles			LKneeAngles			LAbsAnkleAngle			LAnkleAngles			RHipAngles			RKneeAngles			RAnkleAngles			RAbsAnkleAngle			LPelvisAngles			RPelvisAngles			LFootProgressAngles			RFootProgressAngles			RNeckAngles			LNeckAngles			RSpineAngles			LSpineAngles			LShoulderAngles			LElbowAngles			LWristAngles			RShoulderAngles			RElbowAngles			RWristAngles			RThoraxAngles			LThoraxAngles			RHeadAngles			LHeadAngles			LHipPower			LKneePower			LAnklePower			RHipPower			RKneePower			RAnklePower			LWaistPower			RWaistPower			LNeckPower			RNeckPower			LShoulderPower			RShoulderPower			LElbowPower			RElbowPower			LWristPower			RWristPower			LGroundReactionForce			LNormalisedGRF			RGroundReactionForce			RNormalisedGRF			LAnkleForce			RAnkleForce			RKneeForce			LKneeForce			RHipForce			LHipForce			LWaistForce			RWaistForce			LNeckForce			RNeckForce			LShoulderForce			RShoulderForce			LElbowForce			RElbowForce			LWristForce			RWristForce			LGroundReactionMoment			RGroundReactionMoment			LAnkleMoment			RAnkleMoment			RKneeMoment			LKneeMoment			RHipMoment			LHipMoment			LWaistMoment			RWaistMoment			LNeckMoment			RNeckMoment			LShoulderMoment			RShoulderMoment			LElbowMoment			RElbowMoment			LWristMoment			RWristMoment			CentreOfMass			CentreOfMassFloor			
		X1	Y1	Z1	X2	Y2	Z2	X3	Y3	Z3	X4	Y4	Z4	X5	Y5	Z5	X6	Y6	Z6	X7	Y7	Z7	X8	Y8	Z8	X9	Y9	Z9	X10	Y10	Z10	X11	Y11	Z11	X12	Y12	Z12	X13	Y13	Z13	X14	Y14	Z14	X15	Y15	Z15	X16	Y16	Z16	X17	Y17	Z17	X18	Y18	Z18	X19	Y19	Z19	X20	Y20	Z20	X21	Y21	Z21	X22	Y22	Z22	X23	Y23	Z23	X24	Y24	Z24	X25	Y25	Z25	X26	Y26	Z26	X27	Y27	Z27	X28	Y28	Z28	X29	Y29	Z29	X30	Y30	Z30	X31	Y31	Z31	X32	Y32	Z32	X33	Y33	Z33	X34	Y34	Z34	X35	Y35	Z35	X36	Y36	Z36	X37	Y37	Z37	X38	Y38	Z38	X39	Y39	Z39	X40	Y40	Z40	X41	Y41	Z41	X42	Y42	Z42	X43	Y43	Z43	X44	Y44	Z44	X45	Y45	Z45	X46	Y46	Z46	X47	Y47	Z47	X48	Y48	Z48	X49	Y49	Z49	X50	Y50	Z50	X51	Y51	Z51	X52	Y52	Z52	X53	Y53	Z53	X54	Y54	Z54	X55	Y55	Z55	X56	Y56	Z56	X57	Y57	Z57	X58	Y58	Z58	X59	Y59	Z59	X60	Y60	Z60	X61	Y61	Z61	X62	Y62	Z62	X63	Y63	Z63	X64	Y64	Z64	X65	Y65	Z65	X66	Y66	Z66	X67	Y67	Z67	X68	Y68	Z68	X69	Y69	Z69	X70	Y70	Z70	X71	Y71	Z71	X72	Y72	Z72	X73	Y73	Z73	X74	Y74	Z74	X75	Y75	Z75	X76	Y76	Z76	X77	Y77	Z77	X78	Y78	Z78	X79	Y79	Z79	X80	Y80	Z80	X81	Y81	Z81	X82	Y82	Z82	X83	Y83	Z83	X84	Y84	Z84	X85	Y85	Z85	X86	Y86	Z86	X87	Y87	Z87	X88	Y88	Z88	X89	Y89	Z89	X90	Y90	Z90	X91	Y91	Z91	X92	Y92	Z92	X93	Y93	Z93	X94	Y94	Z94	X95	Y95	Z95	X96	Y96	Z96	X97	Y97	Z97	X98	Y98	Z98	X99	Y99	Z99	X100	Y100	Z100	X101	Y101	Z101	X102	Y102	Z102	X103	Y103	Z103	X104	Y104	Z104	X105	Y105	Z105	X106	Y106	Z106	X107	Y107	Z107	X108	Y108	Z108	X109	Y109	Z109	X110	Y110	Z110	X111	Y111	Z111	X112	Y112	Z112	X113	Y113	Z113	X114	Y114	Z114	X115	Y115	Z115	X116	Y116	Z116	X117	Y117	Z117	X118	Y118	Z118	X119	Y119	Z119	X120	Y120	Z120	X121	Y121	Z121	X122	Y122	Z122	X123	Y123	Z123	X124	Y124	Z124	X125	Y125	Z125	X126	Y126	Z126	X127	Y127	Z127	X128	Y128	Z128	X129	Y129	Z129	X130	Y130	Z130	X131	Y131	Z131	X132	Y132	Z132	X133	Y133	Z133	X134	Y134	Z134	X135	Y135	Z135	X136	Y136	Z136	X137	Y137	Z137	X138	Y138	Z138	X139	Y139	Z139	X140	Y140	Z140	X141	Y141	Z141	X142	Y142	Z142	X143	Y143	Z143	X144	Y144	Z144	X145	Y145	Z145	X146	Y146	Z146	X147	Y147	Z147	X148	Y148	Z148	X149	Y149	Z149	X150	Y150	Z150	X151	Y151	Z151	X152	Y152	Z152	X153	Y153	Z153	X154	Y154	Z154	X155	Y155	Z155	X156	Y156	Z156	X157	Y157	Z157	X158	Y158	Z158	X159	Y159	Z159	X160	Y160	Z160	X161	Y161	Z161	X162	Y162	Z162	X163	Y163	Z163	X164	Y164	Z164	X165	Y165	Z165	X166	Y166	Z166	X167	Y167	Z167	X168	Y168	Z168	X169	Y169	Z169	X170	Y170	Z170	X171	Y171	Z171	X172	Y172	Z172	X173	Y173	Z173	X174	Y174	Z174	X175	Y175	Z175	X176	Y176	Z176	X177	Y177	Z177	X178	Y178	Z178	X179	Y179	Z179	X180	Y180	Z180	X181	Y181	Z181	X182	Y182	Z182	X183	Y183	Z183	X184	Y184	Z184	X185	Y185	Z185	X186	Y186	Z186	X187	Y187	Z187	X188	Y188	Z188	X189	Y189	Z189	X190	Y190	Z190	X191	Y191	Z191	X192	Y192	Z192	X193	Y193	Z193	X194	Y194	Z194	X195	Y195	Z195	X196	Y196	Z196	X197	Y197	Z197	

351	3.5	2563.733154296876	906.209106445313	224.0905761718751	2693.397460937501	903.2246093750005	215.5570373535157	2555.181884765626	905.529174804688	94.39488220214847	2566.666503906251	1036.152221679688	223.2159423828126	2685.585449218751	514.698181152344	115.4846725463868	3077.398681640627	635.9647216796877	166.7644653320313	2721.240722656251	571.9433593750002	-292.319793701172	2558.842041015626	905.684448242188	159.2875213623047	2832.859130859376	95.11914062500003	78.99177551269534	3226.365234375002	239.2689666748048	9.683982849121097	2755.891845703126	104.4271469116212	-338.6434326171876	2692.649414062501	494.5736389160159	113.7342681884766	2958.551269531251	131.8631744384766	56.65144729614261	2892.517578125001	304.7534484863282	69.78412628173831	2941.386230468751	139.3285522460938	-127.9388885498047	2786.014648437501	64.95137023925784	69.98948669433597	2445.378662109376	502.3534851074221	296.2136230468751	2829.855957031251	382.8378906250001	167.1418151855469	2319.863037109376	533.3206176757815	-106.3447570800782	2568.623779296876	906.733764648438	288.8937377929689	2291.281982421876	93.38233184814456	326.1462707519532	2665.126708984376	-55.40012359619143	217.9238891601564	2180.080566406251	105.9069595336915	-75.20828247070315	2437.851074218751	482.3745422363284	297.6758728027345	2423.225341796876	64.66762542724612	340.2833862304689	2447.676269531251	252.2792968750001	327.6003417968751	2422.982177734376	51.90934371948245	151.0903015136719	2235.185546875001	89.07948303222659	338.8788452148439	3016.063476562501	154.1670989990235	52.20544052124026	2994.052246093751	211.7972106933595	56.58300399780276	3010.341796875001	156.6555633544922	-9.324691772460941	2958.551269531251	131.8631744384766	56.65144348144534	2485.905517578126	56.53041076660159	340.7515258789064	2494.055908203126	119.0676574707032	336.5238037109376	2485.824462890626	52.27760696411136	277.6871948242189	2423.225585937501	64.66773986816409	340.2833862304689	2520.873535156251	1622.058227539063	216.8041381835939	2745.909179687501	1587.404174804688	215.8034820556642	2520.959716796876	1629.189086914063	-10.77458190917969	2555.541992187501	1846.983032226563	223.8649444580079	2498.790771484376	1371.795776367188	40.78012466430665	2682.193359375001	1361.939086914063	-79.0462341308594	2477.118408203126	1584.066406250001	-9.851955413818363	2617.052490234376	1425.98193359375	217.3306732177736	2565.434570312501	1380.986572265625	425.4227600097659	2778.280517578126	1374.947387695313	476.9140930175784	2570.273925781251	1166.673217773438	380.2825927734376	2617.052490234376	1425.98193359375	217.3307342529298	2617.052246093751	1425.981811523438	217.3307342529298	2834.286376953126	1416.295166015625	189.8135528564454	2644.654785156251	1427.324951171875	434.7658691406252	2607.611572265626	1207.015991210938	219.8818511962892	2400.738769531251	1099.947631835938	16.45014953613282	2127.818603515626	1197.337280273438	28.17172813415529	2403.555908203126	1073.088745117188	305.2028808593751	2498.790771484376	1371.795654296875	40.78003311157228	2464.365722656251	832.0705566406255	-9.087799072265629	2214.123046875001	772.9236450195317	-12.14799118041993	2466.863769531251	808.254516601563	246.9508056640626	2405.192382812501	1081.196411132813	14.66255569458009	2484.541503906251	672.186950683594	-42.05397796630861	2526.169677734376	709.3446044921877	-196.7891540527345	2326.691650390626	661.550720214844	-87.07424163818362	2464.365966796876	832.0704956054692	-9.087787628173832	2569.677490234376	1100.757934570313	501.985534667969	2286.894287109376	1114.304443359375	567.239196777344	2636.187255859376	1176.232177734375	774.5437011718755	2565.434326171876	1380.986450195313	425.4226684570315	2770.094970703126	913.1225585937505	505.0378417968752	2605.651123046876	738.9143066406252	593.405456542969	2828.548828125001	979.4553222656255	744.5835571289065	2583.707031250001	1087.623413085938	502.1990966796877	2884.420898437501	801.9010620117192	525.511413574219	2913.528808593751	858.972534179688	673.0084228515627	2993.700683593751	903.056518554688	464.805114746094	2770.094970703126	913.122436523438	505.0379638671877	2724.165771484376	1663.487548828126	154.9092559814454	2716.442382812501	1657.364990234376	281.2542114257814	2576.939453125001	1681.960815429688	289.3145446777345	2493.058593750001	1427.936767578125	27.38900947570802	2465.360839843751	1263.770263671875	-14.7280445098877	2419.744140625001	1096.58154296875	-22.53323554992676	2432.368652343751	968.663940429688	-41.87921142578126	2504.105224609376	840.8413085937505	-3.723068714141847	2428.329345703126	825.8097534179692	-27.71856117248537	2480.926025390626	757.7858886718752	-49.04648590087893	2564.153076171876	1437.727294921875	437.3738708496096	2582.153320312501	1229.4990234375	514.1558227539065	2592.559326171876	1110.830322265625	537.5835571289065	2711.137695312501	1021.183349609375	535.7573242187502	2799.898681640626	938.3159790039067	497.0180969238284	2743.525634765626	892.1176757812505	526.018737792969	2831.710205078126	866.317016601563	538.245056152344	2625.649169921876	747.3463134765627	23.27290534973145	2690.804199218751	523.0770263671877	55.7953910827637	2740.825927734376	319.9434509277345	24.06070518493654	2824.705078125001	96.10521697998053	34.74766540527345	2970.055175781251	112.0414428710938	62.9067192077637	2463.338867187501	497.9223632812502	353.8161010742189	2372.539550781251	263.0984802246095	373.5214843750001	2303.291503906251	92.02966308593753	369.4929504394532	2607.832519531251	1004.466186523438	111.9301910400391	2793.494384765626	39.15008926391603	80.89770507812503	2569.176513671876	1684.241699218751	148.1585540771485	2519.342041015626	647.2573242187502	382.3589172363282	2229.633544921876	67.43363952636722	328.188690185547	2429.526855468751	41.68231582641603	326.7344360351564	2669.781250000001	1252.586669921875	211.5366363525392	2622.108886718751	1005.601196289063	328.4583435058595	2623.989990234376	1425.67236328125	216.4519348144532	2429.586425781251	1007.789733886719	301.1419677734376	2486.113769531251	1498.73681640625	233.3319396972657	2421.920898437501	1010.988464355469	164.2782745361329	2408.576660156251	1329.921020507813	295.0765075683595	2421.458007812501	1234.287353515625	243.3446502685548	-5.19326162338257	10.86301040649414	19.62981796264649	1.20732581615448	-16.73550033569337	-1.538848400115968	0	0	1.507645368576051	-0.8811443448066716	5.158866882324221	1.513757467269898	0.3956040740013125	14.25674152374268	-15.66248607635499	-1.66225302219391	-2.59247374534607	4.408741950988771	3.56405544281006	-16.00143051147462	13.72919654846192	0	0	13.187406539917	-0.3855055868625643	-3.764435768127443	1.293111205101014	0.3855055868625643	3.764435768127443	1.293111205101014	-4.069437980651857	-4.122480392456056	-111.1968994140626	-3.835271596908571	-0.4243665039539339	-82.60313415527347	2.460822820663453	7.156901359558109	6.288010597229007	-2.460822820663453	-7.156901359558109	6.288010597229007	-0.1313944905996323	-3.460354328155519	1.201676964759827	0.1313944905996323	3.460354328155519	1.201676964759827	7.883337974548343	6.662753582000736	-16.44702720642091	1.590277359294756e-15	-6.693775308347364e-12	33.06584548950197	6.219260692596439	106.1095504760743	-6.155230998992923	14.91749668121339	5.604382991790773	1.376277327537537	-5.963540229704232e-16	9.086844991734736e-12	47.71946334838869	5.884171485900881	92.026237487793	-3.347074747085573	0.6668628454208376	7.212615013122562	2.468801259994508	-0.6668628454208376	-7.212615013122562	2.468801259994508	-1.777058005332948	0.2519502043724061	-8.762239456176761	1.777058005332948	-0.2519502043724061	-8.762239456176761	0	-0.6351813077926638	0	0	-0.5395945310592654	0	0	-0.018169229850173	0	nan	nan	nan	nan	nan	nan	nan	nan	nan	nan	nan	nan	nan	nan	nan	nan	nan	nan	nan	nan	nan	0	-0.004800622817128898	0	0	-0.009497188962996009	0	0	-0.01082191523164511	0	0	0.0006062759202905001	0	0	-0.0003837422118522229	0	0	8.015112143766604e-06	0	nan	nan	nan	nan	nan	nan	nan	nan	nan	nan	nan	nan	0.0415538288652897	-0.3739017844200135	-0.1325415074825287	nan	nan	nan	nan	nan	nan	0.1594430506229401	0.5578474402427676	-1.150753736495972	nan	nan	nan	0.1096708998084069	1.428552985191346	-1.339997410774231	nan	nan	nan	nan	nan	nan	nan	nan	nan	nan	nan	nan	-0.1186889037489892	0.5398088097572329	0.09511028230190283	0.04141740500926973	0.5285570621490481	0.108610324561596	-0.04930415377020839	0.217986434698105	-0.1015277430415154	0.007437880616635088	0.1976413875818254	-0.09320603311061862	-0.01694523356854916	0.05923014879226687	0.03008243255317213	0.00652521196752787	0.05077584460377696	0.009481823071837429	nan	nan	nan	nan	nan	nan	7.579122698298211e-16	18.55488967895509	1.348260641098023	nan	nan	nan	nan	nan	nan	9.027883529663089	18.52937507629395	-429.2242126464846	nan	nan	nan	-130.6547393798829	6.719158649444584	1069.15478515625	nan	nan	nan	nan	nan	nan	nan	nan	nan	nan	nan	nan	31.27467727661134	-4.588988780975344	-2.734308242797852	3.610051870346071	-1.297701358795166	25.16568756103517	9.048690795898441	0.4152523875236513	-18.39559173583985	1.731566905975343	-0.02465200982987882	-6.103702068328861	1.281342864036561	-3.434290002444879e-15	2.4137282371521	-0.4286882281303408	-1.468454963238274e-15	0.2954636812210084	2560.631591796876	995.2431640625005	219.3982849121095	2560.631591796876	0	219.3982849121095	
352	3.51	2575.899902343751	904.597778320313	222.1568603515626	2705.591552734376	901.3507690429692	214.1539916992189	2567.871582031251	903.669799804688	92.42930603027347	2579.083496093751	1034.532958984375	221.0303802490236	2698.995849609376	513.2407836914065	114.4218139648438	3090.428955078127	635.5776367187502	165.639877319336	2734.712646484376	569.7137451171877	-293.431854248047	2571.270019531251	903.950317382813	157.3356475830079	2852.434814453126	95.69393157958987	78.7239685058594	3244.248291015627	245.4582824707032	11.09751892089844	2777.182373046876	103.7838821411133	-339.3576049804689	2706.353515625001	493.2183227539065	112.7100219726563	2977.664062500001	134.5944824218751	57.46125793457034	2908.581787109376	306.3226928710939	70.15045166015628	2961.919433593751	141.9101715087891	-127.2616577148438	2806.189208984376	64.73853302001956	69.3101501464844	2454.222167968751	501.7922668457034	295.3026428222657	2837.094726562501	379.2232360839845	164.2199859619141	2326.737792968751	533.4101562500002	-106.6243286132813	2580.529541015626	905.2453613281255	286.9780273437501	2292.640380859376	95.88649749755862	326.7449645996095	2662.915771484376	-60.04915618896487	216.5274658203126	2179.308837890626	109.9654846191407	-73.91116333007815	2446.327636718751	481.9609985351565	296.838836669922	2424.105712890626	64.67670440673831	340.0270080566407	2452.041503906251	251.7743530273439	326.9532165527345	2422.340087890626	51.72161483764651	150.8553924560547	2236.560302734376	92.66761779785159	339.8605346679689	3034.822509765626	157.8798522949219	53.51163482666018	3011.795166015626	215.1225585937501	57.74142837524417	3029.574218750001	160.3184661865235	-8.062664031982425	2977.664062500001	134.5945129394532	57.46130752563479	2486.620849609376	55.34645080566409	340.0824279785157	2495.932617187501	117.7123336791993	335.7244262695314	2486.032226562501	51.02801513671878	277.0252380371095	2424.105468750001	64.67663574218753	340.0270080566407	2532.999511718751	1620.500732421876	213.8963012695314	2758.062988281251	1586.035034179688	212.6795806884767	2532.750488281251	1626.909545898438	-13.70378112792969	2567.485839843751	1845.476196289063	220.1934509277345	2511.230957031251	1369.9306640625	38.06710052490236	2694.820556640626	1359.793579101563	-81.63468170166018	2489.687988281251	1582.226196289063	-12.95246124267579	2629.413818359376	1424.376342773438	214.7163085937501	2577.589111328126	1379.458129882813	422.7895202636721	2790.402587890626	1373.30419921875	474.4664306640627	2582.339599609376	1165.116455078125	377.7012329101564	2629.413818359376	1424.37646484375	214.7162933349611	2629.413574218751	1424.376342773438	214.7162933349611	2846.744140625001	1414.559204101563	187.5462799072266	2656.675537109376	1425.84521484375	432.2519531250002	2619.854980468751	1205.35888671875	217.3931121826173	2413.523925781251	1097.928344726563	14.05085277557374	2140.466308593751	1195.138549804688	23.97111892700196	2414.778076171876	1071.974243164063	302.8993530273439	2511.230957031251	1369.930541992188	38.06705856323244	2475.820800781251	829.7251586914067	-10.31869125366211	2225.366699218751	771.9240722656255	-14.42497634887696	2476.932373046876	806.719360351563	245.7175598144532	2417.884765625001	1079.154174804688	12.34495735168458	2495.372558593751	669.5091552734377	-42.52065658569337	2538.745849609376	705.8651123046877	-197.0697174072267	2337.813476562501	659.6358642578127	-89.06127929687503	2475.820800781251	829.7251586914067	-10.31871414184571	2582.598632812501	1099.198364257813	499.2846679687502	2299.668945312501	1111.856689453125	564.1909179687502	2648.537597656251	1174.80517578125	771.9709472656255	2577.588867187501	1379.458129882813	422.7894287109377	2783.628417968751	912.273559570313	502.5008850097659	2619.700927734376	737.492126464844	590.6015625000002	2841.568603515626	978.708618164063	742.1085205078127	2596.670654296876	1086.113525390625	499.509704589844	2898.647216796876	801.7514038085942	523.393737792969	2927.060058593751	859.213256835938	670.9465942382815	3007.479003906251	903.5549316406255	462.7914123535159	2783.628417968751	912.2736206054692	502.500915527344	2736.189453125001	1661.936523437501	151.5731658935547	2728.607910156251	1656.147705078126	277.9535217285157	2589.276855468751	1680.688964843751	286.1781005859376	2505.535644531251	1426.052368164063	24.57971191406251	2478.311035156251	1261.630004882813	-17.23167037963868	2432.973388671876	1094.36279296875	-24.69508171081544	2445.000732421876	966.4672851562505	-43.72070312500001	2515.532470703126	838.2517700195317	-4.614401340484621	2439.949462890626	823.6586303710942	-29.25913047790529	2492.324218750001	755.148132324219	-49.85352706909183	2576.331298828126	1436.202514648438	434.7260742187502	2594.589111328126	1228.00244140625	511.3971252441409	2605.398437500001	1109.331665039063	534.917907714844	2724.236816406251	1020.000854492188	533.1711425781252	2813.348876953126	937.5959472656255	494.5252075195315	2757.112304687501	891.1447143554692	523.443786621094	2845.476318359376	865.8700561523442	535.9194946289065	2638.635253906251	745.6008300781252	20.72101593017579	2704.224121093751	521.5075683593752	54.71776199340823	2757.337402343751	319.3143310546876	22.9752311706543	2844.464599609376	96.55075836181646	34.44369506835939	2989.471923828126	114.9698333740235	63.79788589477542	2472.462402343751	497.2683410644534	352.8098144531251	2377.397460937501	264.1651611328126	373.4050903320314	2304.881835937501	94.36577606201175	370.0212402343751	2620.635253906251	1002.542053222657	109.9200744628907	2813.972167968751	38.89037704467775	80.46863555908206	2581.166503906251	1682.471923828126	144.9399719238282	2529.661865234376	646.3218994140627	380.5079956054689	2230.687988281251	71.10866546630862	328.9359436035157	2429.556640625001	41.68730545043947	326.4642333984376	2682.019287109376	1250.91552734375	209.2032165527345	2634.045410156251	1004.092102050782	326.6145019531251	2636.352539062501	1424.062866210938	213.8488006591798	2441.578857421876	1006.51708984375	298.5067749023439	2498.364013671876	1497.178833007813	230.5562896728517	2434.582031250001	1009.595153808594	161.5517578125001	2420.566406250001	1328.566040039063	292.3251037597657	2433.603271484376	1232.818969726563	240.5491180419923	-5.23808813095093	10.66534900665284	19.86415100097657	1.099836468696595	-16.55796051025391	-2.222485303878785	0	0	1.684622883796693	-0.9365069866180424	5.375453948974611	1.692102074623109	0.321584314107895	14.80612182617188	-15.98766422271729	-1.507423996925355	-2.550077199935914	5.03061103820801	3.552368879318239	-15.95498180389405	13.71747016906739	0	0	13.17930889129639	-0.4965590238571169	-3.530046463012697	1.403528690338135	0.4965590238571169	3.530046463012697	1.403528690338135	-3.92965888977051	-3.661546707153322	-112.1651687622071	-3.953507184982302	-0.0502601079642773	-81.51139831542972	2.308211326599122	6.986274242401127	6.20828485488892	-2.308211326599122	-6.986274242401127	6.20828485488892	-0.06557136774063113	-3.601337194442751	1.112090706825257	0.06557136774063113	3.601337194442751	1.112090706825257	7.807434558868412	6.891788959503177	-16.36214256286622	-1.590277359294756e-15	5.617654778855565e-13	32.71330642700197	6.156113147735599	106.3816299438477	-6.135529994964603	14.8922986984253	5.568921089172365	1.584709525108338	0	3.365026790200233e-12	47.74084091186525	6.048309326171879	92.03688049316409	-3.232573747634889	0.6995723843574526	7.119312763214115	2.498956680297852	-0.6995723843574526	-7.119312763214115	2.498956680297852	-1.5848046541214	0.3063066005706788	-8.714969635009769	1.5848046541214	-0.3063066005706788	-8.714969635009769	0	-0.1874408423900605	0	0	-0.4698408246040346	0	0	-0.007611240260303024	0	nan	nan	nan	nan	nan	nan	nan	nan	nan	nan	nan	nan	nan	nan	nan	nan	nan	nan	nan	nan	nan	0	-0.005796478129923345	0	0	-0.01163882669061423	0	0	-0.01033065095543862	0	0	-4.405291110742839e-05	0	0	0.00042145123006776	0	0	3.827202363027029e-06	0	nan	nan	nan	nan	nan	nan	nan	nan	nan	nan	nan	nan	0.01632482185959817	-0.3257024586200715	-0.07811867445707324	nan	nan	nan	nan	nan	nan	0.1299750059843064	0.5813448429107668	-1.014553546905518	nan	nan	nan	0.04598831385374071	1.603159785270692	-1.107460021972657	nan	nan	nan	nan	nan	nan	nan	nan	nan	nan	nan	nan	-0.1134312376379967	0.5510944128036501	0.1233230903744698	0.02246314100921155	0.5438597798347475	0.1326389461755753	-0.0449446849524975	0.2295345067977906	-0.08916000276803973	-0.01014096755534411	0.2164638936519624	-0.08284448832273486	-0.01379564870148898	0.06090622395277026	0.02773225493729116	-0.006792481988668445	0.06589901447296145	-0.006468298379331831	nan	nan	nan	nan	nan	nan	-7.579122698298211e-16	13.83559513092042	7.095506191253666	nan	nan	nan	nan	nan	nan	8.981210708618168	13.73204421997071	-395.335876464844	nan	nan	nan	-145.7681732177735	2.366639137268067	972.5703125000005	nan	nan	nan	nan	nan	nan	nan	nan	nan	nan	nan	nan	29.26992225646974	-4.171357154846193	6.043812274932865	-5.37210273742676	2.867135524749757	36.35659408569337	8.341922760009769	0.4004303216934206	-16.53977394104005	-4.033348560333254	-0.1754515320062638	-1.895310997962953	1.07549011707306	4.58300093364385e-15	2.434391021728517	-1.279692888259888	-2.162159329869582e-16	-0.7235265970230105	2572.623046875001	993.9483032226567	217.3428802490236	2572.623046875001	0	217.3428802490236	
